<?xml version="1.0" standalone="no"?>
<!DOCTYPE svg PUBLIC "-//W3C//DTD SVG 20010904//EN"
 "http://www.w3.org/TR/2001/REC-SVG-20010904/DTD/svg10.dtd">
<svg version="1.0" xmlns="http://www.w3.org/2000/svg"
 width="500.000000pt" height="500.000000pt" viewBox="0 0 500.000000 500.000000"
 preserveAspectRatio="xMidYMid meet">

<g transform="translate(0.000000,500.000000) scale(0.100000,-0.100000)"
fill="#000000" stroke="none">
<path d="M1488 3074 c-5 -4 -8 -247 -8 -541 l0 -533 163 0 c190 0 245 12 294
62 67 69 68 76 71 461 3 380 -1 424 -53 485 -45 54 -91 65 -285 70 -96 2 -178
1 -182 -4z m296 -206 c14 -19 16 -68 16 -328 0 -344 -1 -350 -66 -350 l-34 0
0 350 0 350 34 0 c25 0 39 -7 50 -22z"/>
<path d="M2037 3073 c-4 -3 -7 -246 -7 -540 l0 -533 330 0 330 0 0 214 0 214
88 4 c68 3 96 9 123 25 72 45 104 154 97 330 -3 89 -9 118 -30 164 -49 107
-107 129 -350 129 l-138 0 0 -435 0 -435 -115 0 -115 0 0 125 0 125 100 0 100
0 0 100 0 100 -100 0 -100 0 0 105 0 105 105 0 105 0 0 105 0 105 -208 0
c-115 0 -212 -3 -215 -7z m740 -223 c7 -14 13 -59 13 -101 0 -91 -21 -129 -71
-129 l-29 0 0 131 0 130 37 -3 c28 -2 41 -9 50 -28z"/>
<path d="M3075 3028 c-12 -112 -95 -980 -95 -1003 0 -25 1 -25 99 -25 l100 0
5 53 c3 28 7 68 9 87 l2 35 59 3 c32 2 63 -1 67 -5 4 -4 11 -45 15 -91 l7 -82
101 0 102 0 -13 128 c-7 70 -28 294 -48 497 -19 204 -37 389 -41 413 l-5 42
-179 0 -179 0 -6 -52z m214 -408 c12 -146 21 -268 21 -272 0 -11 -88 -10 -94
1 -3 4 3 125 14 267 11 143 20 266 20 274 0 8 3 10 8 5 5 -6 19 -129 31 -275z"/>
</g>
</svg>
